<svg xmlns="http://www.w3.org/2000/svg" viewBox="0 0 340.76 327.89"><defs><style>.cls-1{fill:#cde9f1;}.cls-2{fill:#1ca7ba;}</style></defs><g id="Layer_2" data-name="Layer 2"><g id="Layer_1-2" data-name="Layer 1"><path class="cls-1" d="M120.89,172.17C42.46,129.91,15.88,128,5.54,132.91-15.86,143.13,32,183,26.77,247c-2.64,32.72-18,56.71,3,71.61,12.64,9,30.84,9.24,31.72,9.24C118.79,328.13,121,205.49,120.89,172.17Z"/><path class="cls-2" d="M137.92,38.15a155.67,155.67,0,0,1,36.37-23.46C215.37-4.43,249.51.4,252.13.92c.16,0,2.54.52,2.53.54S250.24.6,250.24.65s44.16.42,68,20.77c19.88,17,20.24,43.44,20.42,57,.3,22-7.46,22.35-5.22,43.25,2.2,20.54,10.61,28.94,6,43.87-3.46,11.15-12,19-18.35,23.66"/><ellipse class="cls-2" cx="190.23" cy="164" rx="150.52" ry="138.18"/></g></g></svg>